<svg width="100" height="100" viewBox="0 0 100 100" fill="none" xmlns="http://www.w3.org/2000/svg">
<rect width="100" height="100" fill="white"/>
<path d="M28.68 20.84L35.72 37.96V26.12C35.72 24.3333 35.3733 23.44 34.68 23.44C34.4933 23.44 34.2133 23.4933 33.84 23.6C33.4933 23.68 33.2267 23.72 33.04 23.72C32.48 23.72 32 23.4667 31.6 22.96C31.2267 22.4533 31.04 21.8267 31.04 21.08C31.04 20.2 31.2933 19.4933 31.8 18.96C32.3067 18.4267 32.9733 18.16 33.8 18.16C34.2267 18.16 34.96 18.2267 36 18.36C37.04 18.4933 37.96 18.56 38.76 18.56C39.48 18.56 40.32 18.5067 41.28 18.4C42.72 18.24 43.6133 18.16 43.96 18.16C44.8133 18.16 45.5067 18.4267 46.04 18.96C46.5733 19.4933 46.84 20.2 46.84 21.08C46.84 21.8267 46.6267 22.4533 46.2 22.96C45.7733 23.4667 45.2533 23.72 44.64 23.72C44.4 23.72 44.08 23.68 43.68 23.6C43.28 23.4933 42.9733 23.44 42.76 23.44C42.2267 23.44 41.88 23.7733 41.72 24.44C41.6667 24.7067 41.64 25.2667 41.64 26.12V42.4C41.64 44.16 40.92 45.04 39.48 45.04C39.2133 45.04 38.8 45.0267 38.24 45C37.7067 44.9467 37.3067 44.92 37.04 44.92C37.0133 44.92 36.36 44.9467 35.08 45C35.08 45 34.7867 45 34.2 45C33.4267 45 32.8533 44.8133 32.48 44.44C32.2667 44.2267 31.96 43.6533 31.56 42.72L23.84 25.12V37.2C23.84 39.0133 24.1867 39.92 24.88 39.92C25.0667 39.92 25.3467 39.88 25.72 39.8C26.12 39.6933 26.4133 39.64 26.6 39.64C27.16 39.64 27.6267 39.8933 28 40.4C28.4 40.9067 28.6 41.5333 28.6 42.28C28.6 44.2267 27.6667 45.2 25.8 45.2C25.2667 45.2 24.3867 45.12 23.16 44.96C22.3333 44.8533 21.5067 44.8 20.68 44.8C19.9867 44.8 19.0533 44.8667 17.88 45C16.7067 45.1333 15.96 45.2 15.64 45.2C13.6933 45.2 12.72 44.2267 12.72 42.28C12.72 41.5333 12.92 40.9067 13.32 40.4C13.7467 39.8933 14.2667 39.64 14.88 39.64C15.12 39.64 15.44 39.6933 15.84 39.8C16.2667 39.88 16.5867 39.92 16.8 39.92C17.52 39.92 17.88 39.0133 17.88 37.2V26.12C17.88 24.3333 17.52 23.44 16.8 23.44C16.5867 23.44 16.2667 23.4933 15.84 23.6C15.44 23.68 15.12 23.72 14.88 23.72C14.2667 23.72 13.7467 23.4667 13.32 22.96C12.92 22.4533 12.72 21.8267 12.72 21.08C12.72 20.2 12.9867 19.4933 13.52 18.96C14.0533 18.4267 14.7467 18.16 15.6 18.16C16.16 18.16 16.9733 18.2267 18.04 18.36C19.1067 18.4933 19.9467 18.56 20.56 18.56C21.0667 18.56 21.9333 18.5067 23.16 18.4C23.72 18.3733 24.36 18.32 25.08 18.24C25.4 18.1867 25.7467 18.16 26.12 18.16C26.84 18.16 27.4 18.44 27.8 19C27.96 19.2133 28.2533 19.8267 28.68 20.84ZM72.2409 23.2C71.3609 23.2 70.7743 23.28 70.4809 23.44C70.0809 23.68 69.8809 24.2133 69.8809 25.04V27.28C69.8809 27.7333 69.9343 28.08 70.0409 28.32C70.1743 28.5333 70.4943 28.64 71.0009 28.64C72.1743 28.64 72.7609 28.2133 72.7609 27.36V26.84C72.7343 26.68 72.7209 26.48 72.7209 26.24C72.7209 25.12 73.3743 24.56 74.6809 24.56C76.0409 24.56 76.7209 25.24 76.7209 26.6C76.7209 26.9733 76.6943 27.3867 76.6409 27.84C76.5343 28.72 76.4809 29.5333 76.4809 30.28C76.4809 30.9733 76.5343 31.8533 76.6409 32.92C76.7476 33.9867 76.8009 34.7333 76.8009 35.16C76.8009 36.7333 76.0943 37.52 74.6809 37.52C73.3476 37.52 72.6809 36.84 72.6809 35.48C72.6809 35.3467 72.6809 35.28 72.6809 35.28C72.6809 35.1467 72.7076 34.8267 72.7609 34.32C72.7609 33.68 72.1876 33.36 71.0409 33.36C70.2676 33.36 69.8809 33.7867 69.8809 34.64V37.64C69.8809 38.5733 70.0409 39.2133 70.3609 39.56C70.7076 39.88 71.3343 40.04 72.2409 40.04H74.5609C76.2676 40.04 77.4543 39.8933 78.1209 39.6C78.8143 39.3067 79.1609 38.7867 79.1609 38.04C79.1609 37.6667 79.1209 37.2267 79.0409 36.72C78.9609 36.1867 78.9209 35.7467 78.9209 35.4C78.9209 34.4133 79.2009 33.64 79.7609 33.08C80.3209 32.52 81.0809 32.24 82.0409 32.24C83.9876 32.24 84.9609 33.3067 84.9609 35.44C84.9609 36.1333 84.9209 36.8667 84.8409 37.64C84.7076 38.92 84.6409 39.72 84.6409 40.04C84.6409 40.3333 84.7076 40.9067 84.8409 41.76C84.9209 42.2667 84.9609 42.7867 84.9609 43.32C84.9609 44.5733 84.1743 45.2 82.6009 45.2C82.0943 45.2 81.2543 45.16 80.0809 45.08C78.1343 44.9467 75.0276 44.8533 70.7609 44.8C70.7609 44.8 69.5743 44.8 67.2009 44.8C65.8676 44.8 64.7609 44.84 63.8809 44.92L60.8409 45.2C60.8143 45.2 60.7609 45.2133 60.6809 45.24C60.6009 45.24 60.5343 45.24 60.4809 45.24C59.6543 45.24 58.9743 44.96 58.4409 44.4C57.9343 43.84 57.6809 43.1333 57.6809 42.28C57.6809 41.5333 57.8809 40.9067 58.2809 40.4C58.7076 39.8933 59.2409 39.64 59.8809 39.64C60.0943 39.64 60.4143 39.6933 60.8409 39.8C61.2676 39.88 61.5743 39.92 61.7609 39.92C62.4809 39.92 62.8409 39.0133 62.8409 37.2V26.12C62.8409 24.3333 62.4809 23.44 61.7609 23.44C61.6009 23.44 61.2809 23.4933 60.8009 23.6C60.4543 23.68 60.1476 23.72 59.8809 23.72C59.2676 23.72 58.7476 23.4667 58.3209 22.96C57.8943 22.4533 57.6809 21.8267 57.6809 21.08C57.6809 19.1333 58.6543 18.16 60.6009 18.16C61.0543 18.16 61.9743 18.2133 63.3609 18.32C65.4409 18.48 67.4543 18.56 69.4009 18.56C69.5876 18.56 71.1876 18.52 74.2009 18.44C76.3876 18.3867 77.8276 18.3333 78.5209 18.28C79.6676 18.2 80.8676 18.16 82.1209 18.16C83.6143 18.16 84.3609 18.8133 84.3609 20.12C84.3609 20.5467 84.3076 21.1733 84.2009 22C84.1209 22.8267 84.0809 23.4533 84.0809 23.88C84.0809 24.3067 84.1343 24.92 84.2409 25.72C84.3743 26.4933 84.4409 27.08 84.4409 27.48C84.4409 28.2533 84.1476 28.9067 83.5609 29.44C83.0009 29.9733 82.2943 30.24 81.4409 30.24C79.4409 30.24 78.4409 29.2133 78.4409 27.16C78.4409 26.8133 78.4943 26.3333 78.6009 25.72C78.7343 25.1067 78.8009 24.6533 78.8009 24.36C78.8009 23.7733 78.4943 23.4133 77.8809 23.28C77.6676 23.2267 77.1076 23.2 76.2009 23.2H72.2409Z" fill="black"/>
<path d="M38.96 65.64C38.1867 66.1733 36.9733 66.6267 35.32 67C37.24 67.32 38.6 67.8933 39.4 68.72C40.2 69.52 40.6 70.72 40.6 72.32C40.6 72.8 40.5867 73.2667 40.56 73.72C40.56 73.72 40.56 73.88 40.56 74.2C40.56 75.2933 40.88 75.84 41.52 75.84C41.68 75.84 41.92 75.8133 42.24 75.76C42.5867 75.68 42.84 75.64 43 75.64C43.5867 75.64 44.0533 75.8933 44.4 76.4C44.7733 76.88 44.96 77.52 44.96 78.32C44.96 79.2 44.6933 79.9067 44.16 80.44C43.6533 80.9467 42.9733 81.2 42.12 81.2C41.8267 81.2 41.3733 81.16 40.76 81.08C40.1467 81.0267 39.6933 81 39.4 81C39.08 81 38.6 81.0267 37.96 81.08C37.3467 81.16 36.88 81.2 36.56 81.2C35.5733 81.2 34.7733 80.8 34.16 80C33.5733 79.1733 33.28 78.0933 33.28 76.76C33.28 76.6267 33.2933 76.5333 33.32 76.48L33.4 74.16C33.4 74.16 33.4 74.0667 33.4 73.88C33.4 72.4933 33.04 71.5333 32.32 71C31.6267 70.4667 30.36 70.2 28.52 70.2C27.7733 70.2 27.3067 70.4 27.12 70.8C26.9867 71.0667 26.92 71.56 26.92 72.28V73.2C26.92 75.0133 27.2533 75.92 27.92 75.92C28.1067 75.92 28.3867 75.88 28.76 75.8C29.16 75.6933 29.4667 75.64 29.68 75.64C30.24 75.64 30.7067 75.8933 31.08 76.4C31.48 76.9067 31.68 77.5333 31.68 78.28C31.68 80.2267 30.7467 81.2 28.88 81.2C28.24 81.2 27.3733 81.1333 26.28 81C25.1867 80.8667 24.24 80.8 23.44 80.8C22.5867 80.8 21.6 80.8667 20.48 81C19.36 81.1333 18.4133 81.2 17.64 81.2C15.6933 81.2 14.72 80.2267 14.72 78.28C14.72 77.5333 14.92 76.9067 15.32 76.4C15.7467 75.8933 16.2667 75.64 16.88 75.64C17.12 75.64 17.4533 75.6933 17.88 75.8C18.3067 75.88 18.6133 75.92 18.8 75.92C19.52 75.92 19.88 75.0133 19.88 73.2V62.12C19.88 61.2667 19.8533 60.72 19.8 60.48C19.6667 59.7867 19.3333 59.44 18.8 59.44C18.5867 59.44 18.2667 59.4933 17.84 59.6C17.44 59.68 17.12 59.72 16.88 59.72C16.2667 59.72 15.7467 59.4667 15.32 58.96C14.92 58.4533 14.72 57.8267 14.72 57.08C14.72 56.2267 14.9733 55.52 15.48 54.96C16.0133 54.4 16.6933 54.12 17.52 54.12C17.68 54.12 17.8 54.1333 17.88 54.16L20.72 54.44C21.52 54.52 22.3733 54.56 23.28 54.56C24.8533 54.56 26.84 54.48 29.24 54.32C30.84 54.2133 32.0267 54.16 32.8 54.16C35.3333 54.16 37.3333 54.8 38.8 56.08C40.2933 57.3333 41.04 59.0533 41.04 61.24C41.04 63.24 40.3467 64.7067 38.96 65.64ZM29.88 59.48C28.8133 59.48 28.12 59.5467 27.8 59.68C27.2133 59.9467 26.92 60.52 26.92 61.4V63.8C26.92 64.4133 27.0133 64.8133 27.2 65C27.4133 65.1867 27.8 65.28 28.36 65.28C31.8267 65.28 33.56 64.2533 33.56 62.2C33.56 60.3867 32.3333 59.48 29.88 59.48ZM59.3859 75.92C60.1059 75.92 60.4659 75.0133 60.4659 73.2V62.12C60.4659 60.3333 60.1059 59.44 59.3859 59.44C59.1726 59.44 58.8526 59.4933 58.4259 59.6C58.0259 59.68 57.7059 59.72 57.4659 59.72C56.8526 59.72 56.3326 59.4667 55.9059 58.96C55.5059 58.4533 55.3059 57.8267 55.3059 57.08C55.3059 56.2 55.5726 55.4933 56.1059 54.96C56.6393 54.4267 57.3326 54.16 58.1859 54.16C58.6393 54.16 59.5726 54.24 60.9859 54.4C61.9193 54.5067 62.8126 54.56 63.6659 54.56C63.9859 54.56 64.7326 54.52 65.9059 54.44L68.8259 54.24C69.5993 54.1867 70.3593 54.16 71.1059 54.16C75.9326 54.16 79.3859 56.2 81.4659 60.28C82.6393 62.5733 83.2259 65.04 83.2259 67.68C83.2259 70.32 82.6659 72.7467 81.5459 74.96C80.4259 77.1733 78.9326 78.8 77.0659 79.84C75.4126 80.7467 73.4393 81.2 71.1459 81.2C70.2393 81.2 69.4659 81.1733 68.8259 81.12L65.9059 80.88C65.2659 80.8267 64.5193 80.8 63.6659 80.8C62.5993 80.8 61.7059 80.84 60.9859 80.92L59.3859 81.08C58.7726 81.16 58.3726 81.2 58.1859 81.2C57.3326 81.2 56.6393 80.9333 56.1059 80.4C55.5726 79.8667 55.3059 79.16 55.3059 78.28C55.3059 77.5333 55.5059 76.9067 55.9059 76.4C56.3326 75.8933 56.8526 75.64 57.4659 75.64C57.7059 75.64 58.0393 75.6933 58.4659 75.8C58.8926 75.88 59.1993 75.92 59.3859 75.92ZM69.7859 59.28C68.8793 59.28 68.2659 59.4267 67.9459 59.72C67.6526 59.9867 67.5059 60.5333 67.5059 61.36V73.96C67.5059 74.7867 67.6526 75.3467 67.9459 75.64C68.2659 75.9333 68.8793 76.08 69.7859 76.08C71.2526 76.08 72.5726 75.48 73.7459 74.28C75.1059 72.8667 75.7859 70.7733 75.7859 68C75.7859 64.88 75.1059 62.5733 73.7459 61.08C73.1326 60.4133 72.4659 59.9333 71.7459 59.64C71.1326 59.4 70.4793 59.28 69.7859 59.28Z" fill="black"/>
</svg>
