<?xml version="1.0" standalone="no"?>
<!DOCTYPE svg PUBLIC "-//W3C//DTD SVG 20010904//EN"
 "http://www.w3.org/TR/2001/REC-SVG-20010904/DTD/svg10.dtd">
<svg version="1.0" xmlns="http://www.w3.org/2000/svg"
 width="500.000000pt" height="500.000000pt" viewBox="0 0 500.000000 500.000000"
 preserveAspectRatio="xMidYMid meet">
<metadata>
Created by potrace 1.14, written by Peter Selinger 2001-2017
</metadata>
<g transform="translate(0.000000,500.000000) scale(0.100000,-0.100000)"
fill="#000000" stroke="none">
<path d="M1000 3818 l0 -183 33 -27 c17 -15 46 -39 62 -53 17 -14 35 -25 42
-25 6 0 13 -4 15 -8 4 -12 137 -82 154 -82 8 0 14 -4 14 -10 0 -5 9 -10 20
-10 11 0 20 -4 20 -10 0 -5 9 -10 20 -10 11 0 28 -4 38 -9 33 -17 68 -29 157
-55 50 -15 104 -31 121 -36 17 -6 42 -10 57 -10 14 0 29 -4 32 -10 3 -5 21
-10 39 -10 36 0 56 -15 56 -42 0 -10 5 -18 10 -18 6 0 10 -7 10 -15 0 -8 4
-15 9 -15 11 0 81 -146 81 -171 0 -18 -2 -18 -40 6 -22 14 -46 25 -55 25 -8 0
-15 5 -15 10 0 6 -9 10 -20 10 -11 0 -20 5 -20 10 0 6 -16 10 -35 10 -19 0
-35 5 -35 10 0 6 -41 10 -104 10 -59 0 -108 -4 -111 -10 -3 -5 -19 -10 -36
-10 -16 0 -29 -4 -29 -10 0 -5 -7 -10 -17 -10 -21 0 -143 -68 -164 -92 -9 -10
-22 -18 -29 -18 -7 0 -21 -10 -32 -22 -11 -13 -33 -38 -49 -55 -16 -18 -29
-36 -29 -41 0 -4 -9 -14 -20 -22 -11 -8 -20 -22 -20 -32 0 -10 -3 -18 -8 -18
-12 0 -33 -81 -42 -162 -5 -49 -2 -128 7 -220 21 -221 23 -230 44 -235 11 -3
19 -14 19 -24 0 -10 5 -21 10 -24 6 -3 10 -19 10 -36 0 -16 5 -29 10 -29 6 0
10 -7 10 -15 0 -13 50 -96 80 -132 5 -7 10 -19 10 -28 0 -8 4 -15 8 -15 5 0
14 -16 22 -35 16 -42 27 -35 32 20 l3 40 67 -67 c37 -38 70 -68 74 -68 3 0 4
11 2 25 -5 26 9 45 21 29 13 -18 119 -57 132 -48 11 7 24 -27 37 -97 6 -31 20
-76 31 -100 12 -23 21 -49 21 -56 0 -7 4 -13 9 -13 5 0 11 -8 15 -17 3 -10 14
-32 24 -50 15 -25 22 -29 31 -20 9 9 27 -5 80 -59 37 -39 79 -86 92 -105 19
-27 24 -30 27 -16 5 26 17 21 66 -28 41 -41 45 -43 51 -24 5 15 10 18 18 10 6
-6 21 -11 34 -11 13 0 23 -4 23 -8 0 -4 21 -14 48 -21 104 -30 148 -44 177
-56 16 -8 36 -10 45 -6 15 8 266 -1 378 -15 54 -6 62 -5 57 8 -5 13 9 18 77
27 91 13 166 27 214 42 17 5 40 9 52 9 15 0 22 6 22 20 0 16 7 20 35 20 26 0
33 3 29 15 -4 9 1 17 12 20 39 12 164 77 164 86 0 5 7 9 16 9 9 0 24 8 33 18
9 10 44 38 79 62 42 28 59 45 51 50 -13 9 13 39 69 79 24 17 30 26 23 35 -8 9
-2 21 19 41 17 16 30 35 30 42 0 7 3 13 8 13 12 0 36 64 33 89 -1 13 2 33 8
45 45 90 79 177 67 173 -8 -3 -16 -1 -19 6 -4 12 7 84 23 155 10 43 13 128 3
105 -2 -7 -13 -13 -23 -13 -17 0 -19 4 -37 118 -3 17 -9 32 -14 32 -5 0 -9 11
-9 24 0 14 -4 28 -10 31 -5 3 -10 17 -10 31 0 13 -4 24 -10 24 -5 0 -10 14
-10 30 0 17 -4 30 -9 30 -5 0 -14 15 -21 33 -7 17 -18 46 -25 62 -12 29 -26
70 -40 110 -6 19 -7 19 -16 3 -12 -22 -39 -24 -39 -3 0 8 -4 15 -10 15 -5 0
-10 6 -10 13 0 7 -12 38 -26 68 -18 36 -28 76 -31 119 -5 82 2 94 48 79 37
-12 74 -26 101 -40 10 -5 27 -9 38 -9 11 0 20 -4 20 -10 0 -5 9 -10 20 -10 11
0 20 -4 20 -10 0 -5 6 -10 13 -10 7 0 37 -11 65 -25 29 -14 56 -25 62 -25 6 0
10 85 10 236 0 260 -1 263 -62 264 -15 0 -30 5 -33 10 -3 6 -17 10 -31 10 -13
0 -42 5 -63 12 -33 10 -41 19 -51 51 -6 21 -8 47 -5 57 8 26 -31 65 -90 91
-26 11 -45 27 -45 36 0 16 -8 15 -112 -3 -34 -6 -38 -4 -38 15 0 12 -4 21 -10
21 -5 0 -10 -4 -10 -10 0 -5 -4 -10 -10 -10 -12 0 -53 -34 -94 -79 -17 -19
-37 -40 -43 -47 -7 -7 -13 -19 -13 -27 0 -8 -13 -20 -30 -26 -25 -8 -30 -15
-30 -41 0 -26 -25 -71 -34 -59 -5 8 -26 126 -26 147 0 16 -6 22 -21 22 -12 0
-34 14 -51 32 -21 22 -32 28 -37 20 -6 -9 -20 -6 -55 14 -26 14 -50 24 -53 20
-4 -3 -1 -6 5 -6 7 0 12 -4 12 -10 0 -5 14 -32 30 -61 56 -95 75 -243 46 -374
-13 -58 -13 -59 -19 -25 -3 19 -8 78 -11 130 -6 89 -22 169 -39 186 -4 4 -7
18 -7 31 0 12 -4 23 -10 23 -5 0 -10 13 -10 29 0 17 -6 31 -15 35 -21 8 -31
-22 -17 -45 14 -22 16 -89 3 -89 -5 0 -11 6 -14 13 -3 9 -10 9 -32 -3 -22 -12
-29 -12 -32 -2 -3 6 -11 12 -18 12 -28 0 -26 22 6 49 29 26 31 31 18 44 -8 8
-28 17 -45 21 -23 4 -35 0 -61 -24 -18 -16 -33 -34 -33 -40 0 -5 -4 -10 -10
-10 -5 0 -10 -7 -10 -15 0 -10 -10 -15 -30 -15 -17 0 -30 5 -30 12 0 9 -3 9
-12 0 -10 -10 -10 -17 0 -32 21 -35 15 -106 -23 -239 -12 -43 -12 -40 -17 85
-6 120 -30 257 -49 278 -5 6 -9 16 -9 24 0 17 -24 42 -40 42 -7 0 -10 -7 -6
-15 7 -19 -27 -21 -46 -2 -8 6 -24 18 -37 25 -23 14 -24 13 -17 -19 l6 -32
-18 21 c-11 12 -22 19 -26 15 -12 -13 -6 -34 18 -58 14 -13 27 -34 31 -45 3
-11 10 -20 15 -20 4 0 10 -12 13 -27 3 -16 15 -66 26 -113 24 -102 27 -160 8
-160 -9 0 -21 34 -36 98 -12 53 -31 115 -41 136 -11 22 -20 44 -20 48 0 5 -6
16 -14 24 -11 11 -16 11 -19 1 -4 -8 -8 -9 -14 -1 -13 16 -40 23 -50 13 -10
-10 -53 20 -53 37 0 5 -14 25 -30 44 -17 19 -33 43 -36 53 -3 9 -11 17 -18 17
-13 0 -66 61 -66 75 0 3 -16 21 -35 41 -19 19 -35 38 -35 43 0 15 -68 81 -84
81 -9 0 -16 5 -16 10 0 6 -7 10 -16 10 -10 0 -14 -6 -10 -15 6 -17 8 -17 -64
-19 -43 -1 -55 -5 -58 -18 -2 -10 -10 -18 -18 -18 -8 0 -14 -4 -14 -8 0 -5 -9
-20 -20 -33 -31 -38 -34 -42 -49 -71 -8 -15 -20 -29 -27 -32 -14 -5 -166 62
-172 76 -2 5 -12 8 -23 8 -10 0 -19 5 -19 10 0 6 -7 10 -15 10 -8 0 -15 5 -15
10 0 6 -7 10 -15 10 -9 0 -21 5 -28 10 -7 6 -37 27 -67 47 -30 20 -56 40 -58
45 -2 4 -10 8 -18 8 -8 0 -14 5 -14 10 0 6 -33 10 -80 10 l-80 0 0 -182z m880
52 c0 -11 -4 -20 -10 -20 -5 0 -10 9 -10 20 0 11 5 20 10 20 6 0 10 -9 10 -20z
m80 -86 c0 -28 -5 -44 -15 -48 -8 -3 -12 -12 -9 -21 3 -8 1 -15 -5 -15 -16 0
-14 117 2 134 17 19 27 1 27 -50z m-111 19 c0 -5 -4 -17 -9 -28 -8 -18 -9 -17
-9 8 -1 15 4 27 9 27 6 0 10 -3 9 -7z m154 -99 c4 -4 7 -2 7 4 0 7 5 12 10 12
22 0 -3 -108 -28 -124 -17 -11 -41 72 -31 107 5 17 9 46 9 63 0 52 15 49 20
-4 3 -28 9 -54 13 -58z m-625 28 c6 -18 -15 -14 -22 4 -4 10 -1 14 6 12 6 -2
14 -10 16 -16z m692 -81 c0 -17 -4 -33 -10 -36 -5 -3 -10 -18 -10 -33 -1 -29
-23 -66 -33 -55 -11 10 -8 73 3 73 6 0 10 9 10 20 0 11 5 20 10 20 6 0 10 9
10 20 0 11 5 20 10 20 6 0 10 -13 10 -29z m-495 9 c15 0 16 -3 7 -12 -11 -11
-80 -13 -91 -2 -10 10 24 24 44 19 11 -2 29 -5 40 -5z m58 -17 c4 -3 2 -12 -4
-19 -12 -15 5 -29 26 -20 17 6 18 4 9 -18 -9 -22 -24 -20 -58 9 -16 14 -24 25
-18 25 7 0 12 7 12 15 0 15 21 21 33 8z m839 -64 c7 -16 16 -29 20 -29 5 0 8
-8 8 -18 0 -10 4 -22 9 -27 22 -24 38 -253 21 -310 -26 -85 -29 -79 -29 63 -1
87 -5 142 -11 142 -5 0 -10 11 -10 25 0 14 -4 33 -9 43 -22 40 -51 113 -51
125 0 37 34 28 52 -14z m1128 36 c0 -10 -44 -45 -57 -45 -17 0 -17 37 0 43 16
7 57 8 57 2z m-1482 -79 c-4 -22 12 -46 32 -46 5 0 10 -5 10 -11 0 -14 -61
-109 -70 -109 -4 0 -4 19 1 43 11 56 11 57 -4 52 -7 -3 -18 9 -26 27 -11 23
-11 33 -3 36 7 2 12 15 12 28 0 13 5 24 10 24 6 0 10 8 10 18 1 12 6 8 16 -12
9 -15 14 -38 12 -50z m1402 44 c0 -5 -9 -10 -20 -10 -11 0 -20 -4 -20 -10 0
-5 -9 -10 -19 -10 -11 0 -21 -6 -24 -12 -2 -7 -8 -10 -12 -6 -13 12 39 57 68
57 15 1 27 -3 27 -9z m-406 -33 c17 -17 22 -34 23 -75 0 -29 6 -66 13 -82 19
-47 -13 -200 -42 -200 -5 0 -8 51 -8 114 0 63 -4 117 -9 120 -5 3 -12 22 -15
41 -3 19 -9 51 -12 70 -5 28 -3 35 10 35 9 0 27 -10 40 -23z m468 -37 c-12
-11 -28 -20 -35 -20 -8 0 -20 -7 -27 -15 -7 -8 -19 -15 -26 -15 -10 0 -7 8 8
25 12 14 28 25 35 25 7 0 13 5 13 10 0 6 12 10 27 10 l27 0 -22 -20z m-1382
-85 c0 -15 -71 -95 -84 -95 -4 0 3 19 15 42 29 58 69 88 69 53z m580 5 c0 -5
-5 -10 -11 -10 -5 0 -7 5 -4 10 3 6 8 10 11 10 2 0 4 -4 4 -10z m-58 -32 c-9
-9 -12 -7 -12 12 0 19 3 21 12 12 9 -9 9 -15 0 -24z m168 13 c0 -5 -6 -11 -12
-14 -10 -3 -10 -9 0 -26 19 -32 15 -48 -7 -26 -22 23 -18 75 5 75 8 0 14 -4
14 -9z m-63 -73 c-3 -8 -6 -5 -6 6 -1 11 2 17 5 13 3 -3 4 -12 1 -19z m-579
-25 c-24 -50 -34 -63 -50 -63 -12 0 -18 7 -18 25 0 19 7 26 33 34 17 5 33 10
35 10 2 1 2 -2 0 -6z m62 -74 c0 -6 -19 -30 -42 -53 -36 -35 -43 -38 -46 -22
-3 12 8 31 29 52 35 34 59 43 59 23z m370 -117 c58 -4 85 -24 96 -69 4 -13 10
-23 15 -23 5 0 9 -7 9 -16 0 -36 24 -44 114 -36 l87 8 -6 -41 c-10 -64 -15
-74 -38 -77 -20 -3 -23 -11 -28 -78 -9 -108 -16 -133 -46 -155 -51 -38 -83
-73 -83 -90 0 -18 -14 -33 -47 -52 -33 -19 -49 6 -29 46 22 41 20 59 -3 32
-10 -12 -25 -19 -33 -16 -12 5 -11 17 9 73 12 37 22 78 22 92 0 14 -3 19 -6
13 -2 -7 -13 -13 -24 -13 -14 0 -19 7 -19 29 0 17 -4 33 -10 36 -5 3 -10 19
-10 36 0 16 -4 29 -10 29 -5 0 -10 10 -10 23 0 33 -26 102 -32 86 -8 -20 -28
2 -44 47 -12 35 -12 36 13 29 24 -6 24 -4 23 42 -2 66 -2 66 18 57 9 -4 42
-10 72 -12z m-880 -138 c30 -10 52 -23 55 -35 4 -10 11 -19 16 -19 5 0 9 -4 9
-10 0 -5 -19 -10 -42 -10 -54 -1 -138 -45 -156 -82 -10 -22 -10 -33 1 -60 28
-64 72 -98 128 -98 48 0 100 -21 130 -52 23 -24 26 -33 19 -60 -16 -73 -79
-183 -125 -219 -11 -9 -31 -26 -44 -38 -13 -11 -31 -23 -41 -26 -9 -3 -23 -17
-30 -31 -8 -13 -20 -22 -27 -20 -7 3 -19 -1 -27 -9 -8 -8 -26 -15 -40 -15 -14
0 -26 -4 -26 -10 0 -5 -11 -10 -24 -10 -14 0 -36 -4 -50 -10 -32 -12 -56 -3
-56 20 0 11 -4 22 -10 25 -5 3 -10 19 -10 35 0 16 -4 32 -10 35 -5 3 -10 26
-10 50 0 24 5 47 10 50 6 3 10 21 10 40 0 19 -4 37 -10 40 -5 3 -10 17 -10 31
0 13 -4 24 -10 24 -5 0 -10 6 -10 14 0 22 -40 46 -75 46 -23 0 -44 -12 -78
-42 -56 -52 -69 -84 -58 -141 11 -61 4 -72 -26 -36 -23 27 -26 38 -26 122 0
59 4 92 12 95 6 2 11 17 11 33 0 28 37 79 58 79 4 0 25 16 46 35 21 19 46 35
56 35 25 0 40 22 33 48 -4 17 -2 21 10 16 10 -3 18 2 22 16 5 17 12 20 31 16
18 -5 24 -2 24 10 0 8 7 23 16 31 13 14 17 14 25 2 7 -11 11 -10 23 6 39 55
97 97 104 76 4 -13 34 -15 48 -2 8 8 36 16 72 20 7 0 35 -6 62 -15z m53 -150
c11 -11 -5 -34 -24 -34 -12 0 -19 7 -19 20 0 19 28 28 43 14z m-495 -351 c-2
-12 -12 -18 -28 -18 -16 0 -26 6 -28 18 -3 13 3 17 28 17 25 0 31 -4 28 -17z"/>
<path d="M1521 2661 c-27 -25 -31 -36 -31 -81 0 -29 5 -81 12 -116 11 -60 10
-64 -11 -81 -16 -13 -22 -27 -19 -46 l3 -28 22 20 c28 26 27 26 58 -5 25 -25
31 -26 88 -20 34 3 64 11 65 16 2 6 12 10 22 10 10 0 20 4 22 8 2 4 18 18 37
31 40 29 91 106 91 138 0 13 -8 35 -17 49 -16 25 -16 27 0 36 28 15 21 38 -12
38 -17 0 -33 -4 -36 -10 -8 -12 -45 -13 -45 -1 0 5 -8 11 -17 14 -10 3 -31 13
-48 23 -54 31 -64 34 -109 34 -35 0 -50 -6 -75 -29z"/>
</g>
</svg>
